<?xml version="1.0" encoding="UTF-8"?>
<svg id="Camada_2" data-name="Camada 2" xmlns="http://www.w3.org/2000/svg" viewBox="0 0 2586.12 993.98">
  <g id="Camada_1-2" data-name="Camada 1">
    <g>
      <path d="M163.57,373.32l-.05,172.32c0,9.5-9.17,17.09-17.78,17.09l-124.2.12C10.78,562.86,0,556.24,0,543.38L.02,248.24c0-15.3,8.69-26.14,22.24-29.79,9.99-1.24,19.08-2.46,29.73-2.46l317.69-.08.12-195.76c0-11.44,9.47-19.35,19.98-20.1l123.86.07c11.31,0,20.33,8.05,20.32,20.14l-.17,524.99c0,10.28-9.08,17.52-18.28,17.53l-124.36.2c-10.97.02-21.15-7.38-21.17-19.69l-.39-168.98c-.02-7.98-10.82-14.18-18.08-14.18h-167.8c-8.74-.01-16.38,5.01-20.16,13.22Z"/>
      <path d="M1341.02,426.7c3.28-20.63-14.17-36.88-33.05-36.9l-53.7-.08-.2-99.27,37.24-1.36c15.42-.56,25.27-14.62,25.28-28.26,0-13.41-11.87-26.42-27.09-26.37l-57.22.19c-6.71.02-14.81,5.83-14.8,13.55l.09,314.47-113.86.17c-7.92.01-12.18-6.58-13.33-13.74l-.34-185.27.18-223.94c0-8.71,3.28-17.76,14.15-17.74l200.19.54c33.73.09,65.79,7.79,94.02,24.05,34.21,19.7,51.44,52.56,52.58,91.24,2.35,79.59-72.79,85.18-42.11,98.89,59.6,26.63,79.5,80.08,59.51,141.77-29.73,91.74-136.86,84.48-214.72,83.94l.13-110.57,59.27-.91c12.89-.2,25.69-11.13,27.79-24.39Z"/>
      <path d="M904.62,122.04l99.05.04c8.19,0,14.6,7.82,14.6,15.88v217.72c-.01,27.46,0,52.47-8.6,78.58-38.55,117.17-169.84,160.74-279.27,121.6-78.95-28.24-128.2-98.43-128.28-182.25l-.21-233.59c0-9.82,5.73-17.99,15.94-17.97l99.13.26c10.13.03,14.65,9.22,14.65,17.61l.17,237.84c.01,18.14,7.95,35.58,20.22,48.03,23.5,23.84,59.1,30.55,90.33,18.29,26.37-10.35,46.37-34.91,46.46-64.64l.79-245.26c.02-5.26,9.46-12.15,15-12.15Z"/>
      <polygon points="1878.72 301.12 1879.26 395.88 1695.43 395.97 1695.43 562.83 1548.21 562.95 1548.06 357.82 1547.9 122 1910.52 121.99 1910.48 222.02 1695.45 222.01 1695.41 301.03 1878.72 301.12"/>
      <path d="M2359.44,544.76c0,10.47-8.76,17.94-17.74,17.95l-98.25.04c-11.07,0-18.05-8.64-18.04-18.9l.03-209.83c0-15.82,5.49-30.55,17.02-41.65l154.63-148.87c12.87-12.39,28.28-21.19,46.66-21.2l129.44-.11c4.14,0,9.12,3.26,10.9,4.83,7.18,6.3-6.51,23.9-13.23,30.35l-199.77,191.57c-4.25,4.07-8.01,8.99-11.52,13.69l-.13,182.13Z"/>
      <path d="M2405.05,958.05c-18.63,14.29-37.27,22.66-59.77,27.68-86.13,19.22-200.64,7.2-264.01-61.01l39.75-37.95c18.99,19.33,38.55,31.88,62.35,41.54,48.47,19.59,138.59,24.51,181.33-7.18,13.44-9.96,19.99-27.87,13.16-43.59-5.04-11.61-16.49-19.51-28.57-23.38-59.9-19.2-114.04-13.48-173.86-29.86-23.5-6.44-47.38-15.85-61.69-36.22-26.58-37.81-14.05-89.45,23.11-114.78,38.4-26.18,80.91-31.82,126.79-32.13,58.27-.39,122.58,15.37,165.69,57.59l-36.73,38.38c-21.61-21.08-45.29-32.03-73.08-39.6-33.74-7.3-68.59-8.52-102.93-2.89-25.54,4.19-60.88,18.61-58.52,47.83.75,9.28,7.16,19.31,16.95,24.47,27.96,14.73,73.47,18.5,106.17,21.77,40.91,4.1,108.65,12.12,137.69,44.02,33.46,36.74,25.55,95.13-13.81,125.32Z"/>
      <path d="M1585.34,935.19c-34.37,52.11-112.45,60.43-169.65,58.39-63.69-2.28-130.46-20.75-174.8-69.04l39.16-37.53c26.53,26.38,57.74,42.6,93.99,50.59,43.94,9.69,113.47,11.19,150.44-16.7,13.65-10.3,19.76-28.46,12.47-44.29-5.27-11.44-16.97-19.11-29.05-22.82-26.76-8.21-53.27-12.18-81.09-15.06-44.26-4.57-123.23-10.46-151.71-48.07-30.34-40.07-16.17-95.74,26.33-121.13,32.87-19.64,69.57-27.24,108.25-28.27,63.61-1.68,130.74,10.93,178.94,57.49l-36.27,38.34c-24.29-22.64-52.38-36.15-84.35-41.67-40.19-6.94-106.45-8.85-139.23,19.35-9,7.74-12.54,18.17-11.11,29.98,2.95,24.34,42.48,33.59,63.19,36.21l94.32,11.91c38.61,4.87,96.37,18.28,115,56.48,13.15,26.95,11.73,60.78-4.81,85.86Z"/>
      <polygon points="2048.23 984.6 1973.6 985.31 1827.39 821.45 1735.82 894.28 1735.66 985.35 1679.47 985 1679.55 648.09 1735.55 648.49 1735.87 828.72 1960.98 648.35 2041.21 649.22 1870.86 786.78 2048.23 984.6"/>
      <path d="M1104.67,903.02l-204.24-.03-41.19,82.18-62.27-.36,173.78-336.76,64.58.45,173.75,336.7-62.67-.05-41.74-82.13ZM1079.44,854.16l-76.81-151.76-76.65,151.72,153.45.04Z"/>
      <path d="M449.18,950.77c10.63,0,17.45,5.39,18.85,14.39s-3.62,19.98-14.99,19.98l-403.12-.09c-21.51,0-37.25-19.85-37.25-40.53l.08-273.7c0-19.42,17.58-37.31,36.78-37.3l223.11.11-33.23,34.08-192.33-.03-.13,283.07,402.22.02Z"/>
      <polygon points="675.55 984.9 619.66 984.92 619.59 698.58 475.82 698.33 476.24 648.24 818.61 648.24 818.77 698.33 675.54 698.28 675.55 984.9"/>
      <path d="M2168.3,315.34c-9.81,9.65-21.32,8.43-30.17-.1l-94.54-91.14-40.89-39.09c-11.41-10.91-47.25-42.49-44.22-55.23.69-2.9,6.68-7.55,9.99-7.54l134.88.13c17.79.02,33.54,7.99,45.99,19.88l86.83,82.91c7.26,6.93,6.9,16.67.08,23.37l-67.95,66.83Z"/>
      <path d="M142.7,179.61l-121.07.11c-12.36.01-21.55-9.53-21.55-22.08L.11,20.15C.11,8.2,10.81.08,21.56.07L141.76,0c9.55,0,21.62,6.96,21.63,17.96l.08,141.66c0,10.78-9.4,19.99-20.77,20Z"/>
      <path d="M101.07,759.8c-3.98-4.06-3.91-9.9-.82-13.07l17.12-17.61c2.33-3.43,8.62-3.9,11.78-.69l47.46,48.28,137.21-140.54c3.53-3.62,8.73-4.04,11.87-.98l16.71,16.31c3.33,3.25,3.98,9.61,0,13.72l-159.16,164.01c-1.69,1.74-5.11,4.07-6.83,3.91-2.06-.19-5.94-2.44-7.72-4.27l-67.62-69.07Z"/>
      <path d="M455.79,897.64l-343.86.13c-9.36,0-15.31-10.22-15.41-16.87-.12-7.81,5.69-17.14,15.37-17.14l343.32.06c7.88,0,12.56,9.94,12.86,15.03.33,5.49-2.61,18.77-12.28,18.78Z"/>
      <path d="M454.35,810.02l-156.49.08c-9.96,0-15.31-11.08-14.35-18.96s8.3-15.06,18.24-15.05l151.46.12c8.92,0,14.02,8.55,14.71,14.93.75,6.88-3.14,18.88-13.57,18.89Z"/>
    </g>
  </g>
</svg>